# xmcd
#
# Track frame offsets:
#	150
#	42946
#	93024
#	105002
#	137310
#	171762
#	209783
#	243719
#	265471
#	304443
#
# Disc length: 4388 seconds
#
# Revision: 1
# Processed by: cddbd v1.5.2PL0 Copyright (c) Steve Scherf et al.
# Submitted via: audiograbber 1.83.01
#
DISCID=8611220a
DTITLE=Grateful Dead - 79-11-08 Capital Centre, Landover MD
DYEAR=1900
DGENRE=
TTITLE0=New Minglewood Blues
TTITLE1=Stagger Lee
TTITLE2=Mama Tried
TTITLE3=Mexicali Blues
TTITLE4=China Cat Sunflower
TTITLE5=I Know You Rider
TTITLE6=It's All Over Now
TTITLE7=Don't Ease Me In
TTITLE8=Looks Like Rain
TTITLE9=Deal
EXTD=
EXTT0=
EXTT1=
EXTT2=
EXTT3=
EXTT4=
EXTT5=
EXTT6=
EXTT7=
EXTT8=
EXTT9=
PLAYORDER=
